<?xml version="1.0" encoding="UTF-8"?>
<!DOCTYPE svg PUBLIC "-//W3C//DTD SVG 1.1//EN" "http://www.w3.org/Graphics/SVG/1.1/DTD/svg11.dtd">
<!-- Creator: CorelDRAW 2018 (64 Bit) -->
<svg xmlns="http://www.w3.org/2000/svg" xml:space="preserve" width="230mm" height="300mm" version="1.1" style="shape-rendering:geometricPrecision; text-rendering:geometricPrecision; image-rendering:optimizeQuality; fill-rule:evenodd; clip-rule:evenodd"
viewBox="0 0 23000 30000"
 xmlns:xlink="http://www.w3.org/1999/xlink">
 <defs>
  <style type="text/css">
   <![CDATA[
    .str1 {stroke:#282829;stroke-width:169.33;stroke-miterlimit:22.9256}
    .str0 {stroke:black;stroke-width:169.33;stroke-miterlimit:22.9256}
    .str3 {stroke:#282829;stroke-width:42.33;stroke-miterlimit:22.9256}
    .str2 {stroke:#282829;stroke-width:296.33;stroke-miterlimit:22.9256}
    .str5 {stroke:#282829;stroke-width:169.32;stroke-miterlimit:10}
    .str4 {stroke:#282829;stroke-width:169.32;stroke-miterlimit:10}
    .fil16 {fill:none}
    .fil19 {fill:none;fill-rule:nonzero}
    .fil10 {fill:#FEFEFE}
    .fil6 {fill:#FCC99B}
    .fil17 {fill:#FAB478}
    .fil12 {fill:#E95F37}
    .fil3 {fill:#E85F37}
    .fil9 {fill:#D7AC84}
    .fil11 {fill:#C85139}
    .fil13 {fill:#B84C38}
    .fil4 {fill:#B74B38}
    .fil5 {fill:#934233}
    .fil24 {fill:#999999}
    .fil8 {fill:#282829}
    .fil15 {fill:#292929}
    .fil18 {fill:black}
    .fil1 {fill:#6665FE}
    .fil20 {fill:#FCC99B;fill-rule:nonzero}
    .fil22 {fill:#E95F37;fill-rule:nonzero}
    .fil23 {fill:#B74B37;fill-rule:nonzero}
    .fil21 {fill:#C29872;fill-rule:nonzero}
    .fil7 {fill:#282829;fill-rule:nonzero}
    .fil2 {fill:#5D65AC;fill-opacity:0.380392}
    .fil14 {fill:#FEE0C6;fill-opacity:0.501961}
    .fil0 {fill:url(#id0)}
   ]]>
  </style>
  <radialGradient id="id0" gradientUnits="userSpaceOnUse" gradientTransform="matrix(1 -0 -0 0.191845 0 21924)" cx="11521.97" cy="27128.33" r="7567.08" fx="11521.97" fy="27128.33">
   <stop offset="0" style="stop-opacity:1; stop-color:#524E4E"/>
   <stop offset="0.6" style="stop-opacity:1; stop-color:#A9A7A7"/>
   <stop offset="1" style="stop-opacity:0; stop-color:white"/>
  </radialGradient>
 </defs>
 <g id="Capa_x0020_1">
  <metadata id="CorelCorpID_0Corel-Layer"/>
  <ellipse class="fil0" cx="11521.97" cy="27128.33" rx="10811.02" ry="2074.04"/>
  <path class="fil1" d="M11447.48 22093.2c-1046.38,-244.91 -2471.2,-1246.74 -3183.62,-1936.94 -3272.6,-3294.89 -4096.35,-6812.43 -4096.35,-12088.71 1847.81,-445.25 5387.58,-1625.28 7279.97,-1625.28l0 0.03c1892.29,0 5432.13,1180 7279.94,1625.25 0,5276.25 -823.72,8793.82 -4096.38,12088.71 -712.46,690.2 -2137.22,1692.03 -3183.56,1936.94z"/>
  <path class="fil2" d="M4167.51 8067.55c1847.81,-445.25 5387.58,-1625.28 7279.97,-1625.28l0 0.03c1892.29,0 5432.13,1180 7279.94,1625.25 0,5276.25 -1370.98,7804.62 -4260.68,4169.21 -5283.15,-6646.63 -10299.23,4309.94 -10299.23,-4169.21z"/>
  <path class="fil3 str0" d="M6120.88 11735.35c134.6,1402.22 290.45,2496.82 -205.44,3906.2 -336.49,965.82 -527.76,915.74 -152.3,1609.7 1175.95,2189.2 2936.33,4564.4 5369.7,5608.91 293.99,128.78 255.03,135.93 796.96,-96.58 885.5,-375.59 1873.73,-1137.52 2536.09,-1838.63l531.3 -579.5c311.7,-393.48 662.36,-794.11 956.35,-1248.41 566.72,-876.39 1129.9,-1756.36 1487.65,-2915.34 247.94,-794.12 -361.29,-568.76 -825.29,-1241.26 -726.12,-1044.52 -396.71,-2793.73 -201.9,-3959.87 -417.96,189.59 -1027.19,883.55 -1356.59,1230.53l-2100.42 2250c-1381.39,1366.46 -1615.17,1348.58 -3184.28,57.24l-1562.04 -1355.73c-425.04,-389.9 -1540.78,-1366.45 -2089.79,-1427.26z"/>
  <path class="fil4 str0" d="M10965.99 17076.99c514.65,-812.74 853.57,-1062.82 1578.47,-1603.16 611.93,-459.96 1296.04,-857.41 1845.21,-1339.7 1336.84,-1169.99 1977.01,-2335.53 2096.26,-4264.69 106.69,-1732.66 -138.08,-3911.9 -944.57,-5416.82 -690.39,-1286.11 -1886.01,-2540.95 -4013.64,-2295.34 -1729.1,196.49 -3097.32,937.78 -4016.79,2348.93 -844.15,1308.43 -1183.06,3139.34 -1446.66,4916.67 -294.99,1982.75 185.14,3398.36 1443.53,4751.45 244.77,263.47 530.34,504.61 834.73,754.69 630.76,526.94 1314.87,986.91 2017.81,1567.44l605.65 580.53z"/>
  <path class="fil5" d="M12062.24 2431.85c1874.68,0 3905.65,1494.02 4260.67,5283.19 852.1,4260.68 -1930.44,5330.16 -5714.66,5734.57 -3784.18,404.4 -5418.85,-1426.96 -3999.65,-6416.25 1022.55,-3919.82 3578.92,-4601.51 5453.64,-4601.51z"/>
  <path class="fil6 str1" d="M8964.51 5263.49l5027.07 -889.15c977.21,-172.83 1556.11,704.24 1561.42,1518.95l38.11 5853.61c4.74,733.37 -579.18,1566.19 -1332.99,1555.96l-5445.97 -74.13c-753.78,-10.23 -1483,-638.01 -1447.18,-1370.72l239.27 -4888.08c35.85,-732.71 618.3,-1575.2 1360.27,-1706.44z"/>
  <path class="fil7" d="M13851.74 7982.24c-75.1,3.46 -130.73,14.48 -199.58,45.25 -103.39,52.05 -252.36,220.8 -277.98,219.64 -84.67,-79.02 98.68,-338.88 175.85,-407.64 131.36,-96.76 255.15,-129.22 416.71,-132.3 94.25,0.56 172.39,11.65 262.22,40.15 104.42,39.28 554.19,270.91 457.77,439.54 -38.86,42.35 -181.84,-18.3 -224.38,-34.76 -116.16,-36.88 -229.22,-82.6 -346.32,-118.83 -59.15,-18.08 -113.4,-32.15 -174.56,-42.29 -6.44,-3.2 -77.86,-8.32 -89.73,-8.76z"/>
  <path class="fil7" d="M9387.12 8002.78c75.1,3.45 130.73,14.47 199.55,45.24 103.39,52.05 252.39,220.8 278.01,219.64 84.64,-79.02 -98.68,-338.88 -175.85,-407.64 -131.36,-96.76 -255.18,-129.25 -416.71,-132.3 -94.25,0.57 -172.39,11.65 -262.21,40.12 -104.43,39.31 -554.2,270.95 -457.78,439.57 38.84,42.35 181.84,-18.3 224.35,-34.75 116.2,-36.89 229.25,-82.6 346.36,-118.83 59.14,-18.09 113.4,-32.15 174.55,-42.29 6.44,-3.21 77.86,-8.32 89.73,-8.76z"/>
  <path class="fil8" d="M11277.06 11521.7c94.41,283.53 600.94,657.7 1209.86,657.7 1414.71,0 1262.66,-1269.75 864.31,-1486.1 -231.35,624.68 -918.78,1321.81 -2074.17,828.4z"/>
  <path class="fil9" d="M10054.91 10166.87l24.58 -10.97c90.13,-42.4 170.43,-83.54 237.61,-121.09l0 -0.21 2.46 -1.47c113.89,-63.92 190.1,-117.72 210.58,-150.21l-45.07 0 -45.06 0 -45.07 0 -44.24 0 -45.07 0 -45.06 0 -45.07 0 -45.06 0 -45.07 0 -44.24 0 -45.07 0 -45.07 0 -45.06 0 -45.07 0 -45.06 0 -44.25 0 -45.06 0 -45.07 0 -45.06 0 -45.07 0 -45.06 0 -45.07 0 -44.24 0 -45.07 0 -45.07 0 -45.06 0 -45.07 0 -45.06 0 -44.25 0 -45.06 0 -45.07 0 -45.06 0 -45.07 0 -45.06 0 -45.07 0 -44.25 0 -45.06 0 -45.07 0 -45.06 0 -45.07 0 -45.06 0 -44.25 0 -45.06 0 -45.07 0 -45.06 0 -45.07 0 -45.06 0 -44.25 0 -45.07 0 -45.06 0 -45.07 0 -45.06 0 -45.07 0 -45.06 0 -44.25 0 -45.06 0 -45.07 0 -45.06 0 -45.07 0 -45.06 0 -44.25 0 -45.07 0 -45.06 0 -7.37 0 -37.7 0c-24.58,151.47 -18.02,275.52 13.93,375.93 85.22,269.18 349.87,368.55 686.63,368.33 530.14,-0.21 1236.43,-245.34 1700.2,-460.31z"/>
  <path class="fil9" d="M13891.52 5575.96l31.92 2.67 21.94 1.61 9.97 1.07 33.91 2.13 17.96 1.07 273.28 19.25 15.95 1.07 15.96 1.06c446.82,32.08 738.06,50.79 789.92,-10.69l-77.8 -98.89 -81.78 -94.61 -2 -3.21 -11.96 -12.83 -11.97 -12.29 -11.97 -12.83 -13.96 -12.3 -11.97 -12.83c-424.88,-429.24 -1019.31,-706.14 -1679.57,-855.81l-97.75 -21.38c-317.16,-65.22 -650.28,-102.1 -985.4,-112.79l-175.53 -3.75c-919.58,-5.34 -1851.12,179.08 -2569.23,497.67 -732.07,324.47 -1246.71,786.86 -1306.55,1331.03l0 10.16c1.99,14.43 11.97,25.65 27.92,33.14l2 0.53c21.94,9.09 51.86,13.37 93.75,13.37 406.93,-0.54 1759.36,-406.26 3229.48,-606.72 899.63,-121.88 1791.28,-89.8 2473.48,-44.9zm1194.85 24.05l-61.84 -103.7c27.93,35.82 49.87,71.1 61.84,103.7zm-260.88 -314.05c-177.59,-159.03 -403.49,-313.36 -558.96,-404.92 155.47,91.08 381.38,245.82 558.96,404.92z"/>
  <path class="fil9" d="M15260.77 9961.85c-1675.63,-388.7 -2237.56,-339.3 -2240.1,-157.54 -5.08,363.52 2224.2,1256.5 2242.64,233.8l-2.54 -76.26 0 0z"/>
  <path class="fil6 str1" d="M10016.61 13293.45l2823.58 33.25c-274.9,289.37 -56.79,592.96 284.04,933.82 -681.69,852.14 -2385.96,1192.97 -3085.45,-84.29 110.95,-284.04 137.29,-545.94 -22.17,-882.78z"/>
  <path class="fil10 str0" d="M8293.41 14782.96c80.32,95.67 1556.16,1266.87 1847.31,1549.68l825.27 744.35c72.29,-257.58 487.93,-747.5 628.49,-905.21 130.51,-148.23 244.97,-243.91 395.56,-369.02 532.11,-439.46 698.77,-570.88 1301.15,-993.52 192.76,-134.57 763.02,-526.72 895.54,-659.19 -269.06,-15.77 -680.69,36.79 -945.74,80.95 -305.21,50.46 -1178.66,1123.89 -2208.74,846.33 -473.87,-127.21 -752.98,-453.13 -1026.06,-795.87 -58.23,-74.64 -50.2,-74.64 -158.63,-62.03 -622.46,71.5 -1048.14,384.8 -1554.15,563.53z"/>
  <path class="fil7" d="M14662.12 6178.45c-541.29,-60.91 -869.87,19.53 -1397.57,55.1 253.43,-102.44 613.31,-183.41 879.04,-233.02 174.5,-28.38 344.57,-49.29 521.54,-34.12 74.69,6.53 139.24,16.79 207.9,48.03 31.74,14.26 55.54,28.38 80.85,52.34 128.5,152.96 -249.22,119.99 -291.76,111.67z"/>
  <path class="fil7" d="M8709.61 6329.93c524.84,-145.83 861.99,-118.42 1388.68,-166.86 -266.45,-61 -634.63,-83.99 -904.85,-90.89 -176.78,-0.38 -348.01,5.87 -520.38,48.88 -72.71,18.24 -134.81,38.65 -197.66,80.34 -29.1,19.09 -50.33,36.83 -71.52,64.49 -102.69,171.39 265.04,79.02 305.73,64.04z"/>
  <path class="fil7" d="M16902.21 15122.15c-29.92,16.33 34.65,268.84 -90.93,171.22 -453.96,-424.31 -1333.79,-669.03 -1818.59,-637.34 771.41,-384.25 1353.46,58.69 1909.52,466.12z"/>
  <path class="fil7" d="M5830.9 15877.44c32.59,12.84 -111.11,216.88 -94.62,408.39 323.12,-374.17 1484.43,-1098.68 1983.12,-1128.38 -915.62,-81.63 -1373.36,233.11 -1888.5,719.99z"/>
  <path class="fil11" d="M7995.96 16156.04c360.37,-359.82 877.75,-328.57 1308.4,-353.36 -810.3,-597.2 -2510.28,-2241.11 -2951.35,-3142.65 -29.89,-62.32 -55.63,-121.99 -75.55,-179l9.96 67.62c93.18,726.55 111.4,2198.39 -325.86,3208.3 485.51,-458.13 1088.51,-665.61 1757.84,-599.5 -693.2,132.93 -1888.5,719.99 -2076.7,1359.89 2459.87,1994.06 450.19,1430.21 2353.26,-361.3z"/>
  <path class="fil12 str1" d="M11412.43 2140.02c3712.18,-563.81 5479.86,3126.2 5479.86,6982.48 -1770.94,-4252.07 -3181.88,-4364.38 -5479.86,-4067.92 -2298.02,296.47 -3325.2,575.7 -5479.9,4067.92 530.31,-3834.07 1767.68,-6418.66 5479.9,-6982.48z"/>
  <path class="fil13" d="M13163.37 4493.65l-4.18 -3.73 -4.18 -1.87 -64.82 -35.46c-188.15,-93.31 -349.13,-184.75 -491.29,-274.32l-23 -14.93 -25.08 -14.93 -31.36 -18.67 -20.91 -13.05c-1835.57,-1220.48 565.96,-1820.44 154.11,-1926.81 -2593.77,-225.9 -4646.19,1190.43 -5482.47,2859.82 -602.09,1015.2 -1006.25,2226.41 -1259.21,3661.51 514.29,-744.61 991.09,-1255.54 1411.3,-1727.68 436.95,-488.94 821.87,-923.88 1355,-1233.68 825.79,-481.46 1774.94,-660.52 2876.69,-802.36 499.68,-65.31 1709.75,-91.8 1732.74,-312.01l0 -13.06c-4.18,-39.2 -39.72,-78.38 -123.34,-128.77z"/>
  <path class="fil8" d="M11141.22 8232.92c415.29,-275.1 873.56,-275.1 1239.39,0 0,188.28 0,376.55 0,564.82 -436.32,-452.14 -894.67,-311.11 -1239.39,0l0 -564.82z"/>
  <path class="fil14" d="M7729.03 9125.88l5.51 12.12c89.1,209.84 217.68,375.74 368.31,462.86 240.65,140.14 548.34,193.93 865.22,193.93 698.05,0 1442.02,-262.11 1615.61,-449.23l0 0c187.38,-68.93 259.94,-371.95 261.77,-730.26l0 -43.18c-7.35,-551.49 -174.51,-1213.58 -356.37,-1356.76 -14.7,-12.87 -50.52,-25 -103.79,-34.84 -47.76,-9.09 -109.3,-16.67 -181.86,-23.49 -130.42,-12.87 -293.91,-21.21 -473.02,-27.27 -132.26,-4.54 -270.95,-7.57 -411.48,-7.57l-54.19 0 -53.27 0 -53.28 0 -385.76 8.33c-163.49,6.06 -310.45,14.39 -424.34,26.51l-11.02 1.52 -4.59 0 -6.43 0.76 -10.11 0.75 -11.02 1.52 -4.59 0.76 -16.53 1.51 -11.03 1.52 -2.75 0.75 -7.35 0.76 -2.75 0.76 -7.35 1.51 -11.02 0.76 0 0.76c-80.83,12.88 -130.43,28.03 -138.7,44.69 -119.4,125 -214,259.84 -288.4,399.23l-24.8 47.72c-123.08,249.99 -180.02,515.89 -184.61,767.39l0 43.18 0 43.94c4.59,174.23 32.14,338.62 79.9,488.61l44.09 120.45zm1014.72 -1988.43c-115.47,23.96 -261.02,10.51 -395.66,19.58 135.48,-9.77 280.31,4.28 395.66,-19.58zm-502.2 33.22c-36.74,8.33 -71.65,18.94 -105.63,34.85 32.15,-15.91 68.89,-27.28 105.63,-34.85z"/>
  <path class="fil15" d="M7248.08 9530.41l0 16.57c4.49,194.9 154.68,382.97 336.25,502.83 117.69,77.96 249.95,125.71 360.91,127.66l14.57 0 26.9 -1.95 2435.59 -249.47 152.43 -15.59c265.64,-27.28 585.08,-295.27 624.31,-607.1l3.36 -47.75 0 -15.59 0 -16.57 -29.14 -819.53 -39.23 -1123.57c-5.61,-142.28 -53.8,-250.44 -122.17,-330.35l-7.85 -9.75 -1.12 -0.97 -7.85 -8.77 -4.48 -2.92 -4.48 -5.85 -6.73 -5.85 -2.24 -2.92 -28.02 -23.39 -7.85 -5.85 -1.12 -1.95 -10.08 -6.82 -2.25 -0.97 -7.84 -4.87 -5.61 -3.9 -4.48 -2.92 -8.97 -5.85 -1.12 0c-76.21,-47.75 -164.76,-79.91 -254.43,-97.45 -60.52,-12.67 -123.29,-17.54 -181.57,-19.49l-14.57 0 -15.7 0 -14.57 0 -14.57 0 -56.04 2.92 -2520.76 197.82c-288.06,22.42 -540.25,460.93 -546.97,805.9l-32.51 1784.26zm2889.17 -2310.62c7.24,0.98 14.49,2.06 21.76,3.26l0.05 0.01c25.68,4.26 51.47,9.98 76.79,17.38l0.04 0.01c7.44,2.17 14.84,4.5 22.18,6.97l1.54 0.52 7.91 2.76 7.42 2.7 2.48 0.94c3.03,1.15 6.05,2.32 9.06,3.53l0.48 0.19c3.55,1.43 7.1,2.89 10.61,4.4l0.11 0.05c121.27,52.11 219.54,152.07 225.49,330.64l48.2 1367.2c7.84,242.64 -238.74,462.87 -441.61,483.34l-1821.36 187.1c-195.46,19.82 -503.45,-198.13 -518.43,-431.49l-0.01 -0.01c-0.24,-3.76 -0.39,-7.52 -0.48,-11.29l-0.01 0c-0.08,-3.77 -0.09,-7.54 -0.02,-11.32l22.41 -1256.1c4.49,-242.65 182.7,-551.56 384.45,-567.15l0 0 1774.29 -138.37c43.98,-3.38 94.32,-3.31 146.33,2.27l2.87 0.31 0.85 0.09 7.65 0.9 5.74 0.73 3.21 0.43z"/>
  <path class="fil14" d="M15776.69 9127.26l-5.51 12.12c-89.1,209.84 -217.68,375.74 -368.31,462.86 -240.65,140.14 -548.34,193.93 -865.22,193.93 -698.05,0 -1442.02,-262.11 -1615.61,-449.23l0 0c-187.38,-68.93 -259.94,-371.95 -261.77,-730.26l0 -43.18c7.35,-551.49 174.51,-1213.58 356.37,-1356.76 14.7,-12.87 50.52,-25 103.79,-34.84 47.76,-9.09 109.3,-16.67 181.86,-23.49 130.42,-12.87 293.91,-21.21 473.02,-27.27 132.26,-4.54 270.95,-7.57 411.48,-7.57l54.19 0 53.27 0 53.28 0 385.76 8.33c163.49,6.06 310.45,14.39 424.34,26.51l11.02 1.52 4.59 0 6.43 0.76 10.11 0.75 11.02 1.52 4.59 0.76 16.53 1.51 11.03 1.52 2.75 0.75 7.35 0.76 2.75 0.76 7.35 1.51 11.02 0.76 0 0.76c80.83,12.88 130.43,28.03 138.7,44.69 119.4,125 214,259.84 288.4,399.23l24.8 47.72c123.08,249.99 180.02,515.89 184.61,767.39l0 43.18 0 43.94c-4.59,174.23 -32.14,338.62 -79.9,488.61l-44.09 120.45zm-1014.72 -1988.43c115.47,23.96 261.02,10.51 395.66,19.58 -135.48,-9.77 -280.31,4.28 -395.66,-19.58zm502.2 33.22c36.74,8.33 71.65,18.94 105.63,34.85 -32.15,-15.91 -68.89,-27.28 -105.63,-34.85z"/>
  <path class="fil15" d="M16257.64 9531.79l0 16.57c-4.49,194.9 -154.68,382.97 -336.25,502.83 -117.69,77.96 -249.95,125.71 -360.91,127.66l-14.57 0 -26.9 -1.95 -2435.59 -249.47 -152.43 -15.59c-265.64,-27.28 -585.08,-295.27 -624.31,-607.1l-3.36 -47.75 0 -15.59 0 -16.57 29.14 -819.53 39.23 -1123.57c5.61,-142.28 53.8,-250.44 122.17,-330.35l7.85 -9.75 1.12 -0.97 7.85 -8.77 4.48 -2.92 4.48 -5.85 6.73 -5.85 2.24 -2.92 28.02 -23.39 7.85 -5.85 1.12 -1.95 10.08 -6.82 2.25 -0.97 7.84 -4.87 5.61 -3.9 4.48 -2.92 8.97 -5.85 1.12 0c76.21,-47.75 164.76,-79.91 254.43,-97.45 60.52,-12.67 123.29,-17.54 181.57,-19.49l14.57 0 15.7 0 14.57 0 14.57 0 56.04 2.92 2520.76 197.82c288.06,22.42 540.25,460.93 546.97,805.9l32.51 1784.26zm-2889.17 -2310.62c-7.24,0.98 -14.49,2.06 -21.76,3.26l-0.05 0.01c-25.68,4.26 -51.47,9.98 -76.79,17.38l-0.04 0.01c-7.44,2.17 -14.84,4.5 -22.18,6.97l-1.54 0.52 -7.91 2.76 -7.42 2.7 -2.48 0.94c-3.03,1.15 -6.05,2.32 -9.06,3.53l-0.48 0.19c-3.55,1.43 -7.1,2.89 -10.61,4.4l-0.11 0.05c-121.27,52.11 -219.54,152.07 -225.49,330.64l-48.2 1367.2c-7.84,242.64 238.74,462.87 441.61,483.34l1821.36 187.1c195.46,19.82 503.45,-198.13 518.43,-431.49l0.01 -0.01c0.24,-3.76 0.39,-7.52 0.48,-11.29l0.01 0c0.08,-3.77 0.09,-7.54 0.02,-11.32l-22.41 -1256.1c-4.49,-242.65 -182.7,-551.56 -384.45,-567.15l0 0 -1774.29 -138.37c-43.98,-3.38 -94.32,-3.31 -146.33,2.27l-2.87 0.31 -0.85 0.09 -7.65 0.9 -5.74 0.73 -3.21 0.43z"/>
  <path class="fil16 str2" d="M16635.69 8388.41c2060.11,-9571.68 -11744.46,-9742.16 -10381.87,329.3"/>
  <path class="fil11" d="M15140.69 16806.17c78.12,52.08 2738.21,-706.94 2175.38,-1167.51 -429.06,-351.1 -1374.55,-1076.27 -2323.38,-982.63 456.8,-337.62 1333.57,84.27 1431.18,133.51 -565,-987.82 -260.76,-2504.43 -227.22,-2983.59 -323.57,733.77 -838.68,1926.25 -2738.85,3133.53 2457.57,825 1429.49,1704.71 1682.89,1866.69z"/>
  <path class="fil17 str3" d="M11779.17 8519.04c341.55,0 618.43,178.17 618.43,397.94 0,219.8 -276.88,397.97 -618.43,397.97 -341.55,0 -618.43,-178.17 -618.43,-397.97 0,-219.77 276.88,-397.94 618.43,-397.94z"/>
  <ellipse class="fil18" cx="7492.53" cy="7166.14" rx="152.85" ry="223.98"/>
  <path class="fil19 str1" d="M11566.31 17129.54c-340.89,1022.58 68.91,5375.9 280.08,5679.77"/>
  <path class="fil20 str4" d="M15589.98 17982.24c0,0 -232.23,104.86 -521.01,-415.02 -288.74,-519.91 -670.86,-1722.01 -396.65,-2346.28 274.24,-624.23 497.24,-1084.77 -198.95,-1101 -696.19,-16.23 -1179.46,1178.11 -1004.15,2144.59 0,0 -1659.09,-790.88 -2130.65,-894.61 -471.63,-103.7 -699.34,602.98 -480.73,905.88 0,0 -538.53,425.38 -217.19,918.22 0,0 -508.04,356.03 -206.18,798.89 0,0 -560.03,333.17 -206.11,798.92 353.89,465.78 2933.31,1516.15 3332.12,1691.36 398.82,175.19 1112.34,199.05 1112.34,199.05l917.16 -2700z"/>
  <path class="fil21" d="M11463.69 19117.83c568.72,222.68 1140.72,446.38 1738.55,571.68 597.8,125.29 1419.89,207.61 2004.63,31.08l-334.58 949.05c-254.78,-10.08 -605.65,3.61 -1014.36,-156.73 -882.84,-346.32 -2047.67,-859.51 -2795.45,-1285.39 -216.19,-123.1 -642.1,-345.66 -703.6,-612.74 343.81,201.68 732.05,357.09 1104.81,503.05z"/>
  <path class="fil21" d="M10600.93 17684.7c42.07,52.31 91.84,99.52 122.23,159.4 83.13,163.5 -62.95,244.28 -122.26,196.09 -188.62,-182.69 -205.57,-384.84 -99.21,-538.78 26.69,64.36 55.57,128.98 99.24,183.29z"/>
  <path class="fil21" d="M10989.8 17134.14c-38.08,76.04 -97.58,117.58 -190.04,121.03 -185.89,-196.72 -207.77,-420.26 -102.5,-594.69 66.05,178.61 155.34,341.61 292.54,473.66z"/>
  <path class="fil21" d="M11162.58 16205.06c3.2,112.18 -54.97,101.79 -155.06,130.26 -119.87,-163.95 -205.2,-269.78 -111.36,-541.01 13.03,-37.67 34.47,-72.64 54.63,-117.63 11.3,133.24 91.73,307.45 164,420.04 21.64,33.62 46.63,68.37 47.79,108.34z"/>
  <path class="fil21" d="M11581.69 16306.16c18.02,-9.7 37.21,-9.2 56.92,-6.47 23.74,7.1 29.8,8.79 18.18,5.09 11.15,2.07 22.07,4.99 32.81,8.69 4.83,1.79 9.64,3.49 14.47,5.18 1.13,0.26 3.93,0.95 8.82,2.26 14.6,2.23 27.6,8.04 39.34,16.71 1.13,0.59 3.14,1.66 6.78,3.67 60.44,32.12 54.29,105.36 -2.88,136.1 -36.89,19.9 -76.39,20.75 -116.39,9.89 -46.81,-12.75 -104.7,-47.28 -105.55,-102.26 -0.63,-37.7 14.79,-61.25 47.5,-78.86z"/>
  <path class="fil21" d="M11246.96 17198.01c38.77,-25.9 77.29,-12.4 118.8,-2.76 22.13,5.21 44.42,8.98 66.52,14.41 29.39,7.25 50.67,20.81 75.26,37.61 47.59,32.52 29.79,110.1 -20.25,128.88 -64.52,24.17 -122.48,9.85 -180.31,-24.52 -27.97,-16.61 -52.74,-33.25 -70.79,-61 -17.77,-27.26 -19.63,-72.31 10.77,-92.62z"/>
  <path class="fil21" d="M10987.25 18042.33c28.32,-42.23 84.33,-27.76 124.14,-14.26 13.78,4.68 24.71,9.95 38.84,12.69 10.48,2.04 19.15,3.04 28.72,5.49 38.93,-20 94.69,13.22 84.46,60.06 -14.82,67.69 -80.69,106.02 -147.06,84.64 -25.68,-8.29 -46.15,-23.29 -65.77,-41.44 -20.19,-18.68 -48.67,-32.15 -64.77,-54.19 -12.31,-16.76 -9.55,-36.64 1.44,-52.99z"/>
  <path class="fil22 str5" d="M17045.7 18208.15c137.82,404.88 -1176.33,3145.67 -1451.85,3304.94 -275.5,159.24 -1434.55,-349.94 -1534.99,-674.31 -100.4,-324.41 1214.53,-3147.58 1451.85,-3304.94 237.29,-157.35 1445.26,410.62 1534.99,674.31z"/>
  <path class="fil23" d="M16278.33 19423.1c456.46,-330.37 -297.29,1604.15 -740.81,2019.7 -193.43,93.22 -1204.3,-287.95 -1399.64,-629.03 16.48,-1367.06 1732.12,-1095.36 2140.45,-1390.67z"/>
  <path class="fil24 str1" d="M16638.4 6521.2c58.17,319.22 148.47,724.44 176.28,1031.55 792.2,220.49 1343.82,377.72 1912.74,514.8 0,5276.25 -823.72,8793.79 -4096.41,12088.71 -712.43,690.2 -2137.19,1691.99 -3183.53,1936.94 -1046.38,-244.95 -2471.2,-1246.74 -3183.66,-1936.94 -3272.56,-3294.92 -4096.31,-6812.43 -4096.31,-12088.71 628.97,-151.58 1198.42,-317.32 2087.76,-563.58 95.44,-469.49 162.94,-691.71 255.5,-1006.98 -1343.35,377.91 -2621.93,761.28 -3476.36,959.79 0,5459.16 509.68,10572.35 4911.82,14509.36 2671.69,2404.52 4356.87,2342.89 6966.9,123.33 4554.91,-3840.42 5055.69,-8917.34 5055.69,-14632.69 -823.78,-191.36 -2040.29,-571.15 -3330.42,-935.58z"/>
  <path class="fil24 str1" d="M5610.06 21094.92l11674.77 0c538.87,0 979.69,440.82 979.69,979.63l0 1790.04c0,538.88 -440.82,979.7 -979.69,979.7l-11674.77 0c-538.84,0 -979.66,-440.82 -979.66,-979.7l0 -1790.04c0,-538.81 440.82,-979.63 979.66,-979.63z"/>
  <path class="fil7" d="M6491.4 21593.45c199.51,0 356.49,28.98 470.99,86.84 114.59,57.86 200.74,144.07 258.67,258.57 57.86,114.5 94.18,257.98 109,430.4 14.76,172.36 22.17,373.1 22.17,602.17 0,251.25 -6.78,464.27 -20.32,639.18 -13.62,174.81 -48.09,316.43 -103.51,424.84 -55.41,108.38 -139.11,187.18 -251.16,236.41 -112.05,49.29 -265.39,73.9 -460.01,73.9l-642.82 0 0 -2752.31 616.99 0zm-254.9 280.74l0 2168.67 288.14 0c103.42,0 185.36,-19.72 245.67,-59.18 60.41,-39.34 105.96,-102.19 136.67,-188.41 30.83,-86.15 50.54,-196.97 59.18,-332.51 8.54,-135.44 12.9,-299.23 12.9,-491.33 0,-201.94 -3.64,-372.45 -11.08,-511.66 -7.41,-139.2 -26.44,-251.85 -57.24,-338 -30.79,-86.21 -78.8,-149.06 -144.07,-188.4 -65.3,-39.47 -154.56,-59.18 -267.83,-59.18l-262.34 0zm2430.98 -280.74l0 288.15 -690.92 0 0 868.17 580.09 0 -25.93 291.82 -554.16 0 0 1023.43 709.34 0 0 280.74 -1075.07 0 0 -2752.31 1056.65 0zm897.75 2120.57l376.84 -2120.57 347.23 0 -554.16 2752.31 -384.15 0 -550.49 -2752.31 395.33 0 369.4 2120.57zm1274.59 -2120.57l0 1185.9 635.41 0 0 -1185.9 365.73 0 0 2752.31 -365.73 0 0 -1278.23 -635.41 0 0 1278.23 -369.52 0 0 -2752.31 369.52 0zm2028.14 -48c182.32,0 323.25,29.51 422.99,88.66 99.75,59.08 173.68,147.74 221.69,266.01 48.06,118.14 76.95,266.61 86.84,445.16 9.86,178.54 14.82,387.29 14.82,626.15 0,241.4 -4.96,450.77 -14.82,628.09 -9.89,177.32 -38.78,325.07 -86.84,443.34 -48.01,118.17 -121.94,206.2 -221.69,264.16 -99.74,57.86 -240.67,86.74 -422.99,86.74 -182.21,0 -324.47,-30.1 -426.66,-90.48 -102.19,-60.31 -178.55,-149.6 -229.09,-267.83 -50.42,-118.27 -81.85,-266.02 -94.16,-443.34 -12.3,-177.35 -18.49,-384.25 -18.49,-620.68 0,-233.96 6.19,-439.67 18.49,-616.89 12.31,-177.36 43.74,-326.39 94.16,-447.11 50.54,-120.68 126.9,-211.19 229.09,-271.47 102.19,-60.41 244.45,-90.51 426.66,-90.51zm0 288.17c-88.66,0 -158.23,21.54 -208.74,64.58 -50.46,43.11 -88.66,110.2 -114.5,201.41 -25.84,91.11 -42.51,208.65 -49.83,352.76 -7.41,144.07 -11.08,317.12 -11.08,519.06 0,204.47 3.67,378.06 11.08,520.91 7.32,142.88 23.99,259.83 49.83,351 25.84,91.11 64.04,157.01 114.5,197.67 50.51,40.59 120.08,60.93 208.74,60.93 86.22,0 153.34,-20.34 201.34,-60.93 48.07,-40.66 83.77,-106.56 107.16,-197.67 23.39,-91.17 37.54,-208.12 42.51,-351 4.89,-142.85 7.4,-316.44 7.4,-520.91 0,-201.94 -2.51,-374.99 -7.4,-519.06 -4.97,-144.11 -19.12,-262.25 -42.51,-354.68 -23.39,-92.33 -59.09,-159.42 -107.16,-201.34 -48,-41.88 -115.12,-62.73 -201.34,-62.73zm1270.92 506.07l0 2006.07 -280.74 0 0 -2752.31 435.9 0 476.58 2183.39 483.99 -2183.39 410.09 0 0 2752.31 -302.9 0 0 -2006.07 -424.91 2006.07 -354.67 0 -443.34 -2006.07zm2863.23 -746.24l0 288.15 -690.92 0 0 868.17 580.1 0 -25.93 291.82 -554.17 0 0 1023.43 709.35 0 0 280.74 -1075.07 0 0 -2752.31 1056.64 0z"/>
  <path class="fil8" d="M16275.62 5804.16c-456.74,0 -827.05,1220.87 -827.05,2726.84 0,1506.01 370.31,2726.85 827.05,2726.85 192.08,0 368.87,-215.93 509.27,-578.11l676.01 0c393.95,0 716.19,-322.24 716.19,-716.19l0 -2865.06c0,-393.95 -322.24,-716.19 -716.19,-716.19l-676.01 0c-140.4,-362.21 -317.19,-578.14 -509.27,-578.14z"/>
  <path class="fil8" d="M6656.76 5834.04c456.74,0 827.05,1220.88 827.05,2726.85 0,1506.01 -370.31,2726.85 -827.05,2726.85 -192.08,0 -368.87,-215.93 -509.27,-578.11l-676.01 0c-393.95,0 -716.19,-322.24 -716.19,-716.19l0 -2865.06c0,-393.95 322.24,-716.19 716.19,-716.19l676.01 0c140.4,-362.21 317.19,-578.15 509.27,-578.15z"/>
 </g>
</svg>
